<svg width="20" height="21" viewBox="0 0 20 21" fill="none" xmlns="http://www.w3.org/2000/svg">
<path d="M12.9916 18.5501C12.8332 18.5501 12.6749 18.4917 12.5499 18.3667C12.3082 18.1251 12.3082 17.7251 12.5499 17.4834L14.8999 15.1334C15.1416 14.8917 15.5416 14.8917 15.7832 15.1334C16.0249 15.3751 16.0249 15.7751 15.7832 16.0167L13.4332 18.3667C13.3082 18.4917 13.1499 18.5501 12.9916 18.5501Z" fill="#B92123"/>
<path d="M15.3416 18.5501C15.1832 18.5501 15.0249 18.4917 14.8999 18.3667L12.5499 16.0167C12.3082 15.7751 12.3082 15.3751 12.5499 15.1334C12.7916 14.8917 13.1916 14.8917 13.4332 15.1334L15.7832 17.4834C16.0249 17.7251 16.0249 18.1251 15.7832 18.3667C15.6582 18.4917 15.4999 18.5501 15.3416 18.5501Z" fill="#B92123"/>
<path d="M10.1331 10.1837C10.1081 10.1837 10.0915 10.1837 10.0665 10.1837C10.0248 10.1753 9.96647 10.1753 9.91647 10.1837C7.4998 10.1087 5.6748 8.20866 5.6748 5.86699C5.6748 3.48366 7.61647 1.54199 9.9998 1.54199C12.3831 1.54199 14.3248 3.48366 14.3248 5.86699C14.3165 8.20866 12.4831 10.1087 10.1581 10.1837C10.1498 10.1837 10.1415 10.1837 10.1331 10.1837ZM9.9998 2.79199C8.30814 2.79199 6.92481 4.17533 6.92481 5.86699C6.92481 7.53366 8.2248 8.87533 9.88314 8.93366C9.93314 8.92533 10.0415 8.92533 10.1498 8.93366C11.7831 8.85866 13.0665 7.51699 13.0748 5.86699C13.0748 4.17533 11.6915 2.79199 9.9998 2.79199Z" fill="#B92123"/>
<path d="M9.99977 19.3001C8.29977 19.3001 6.69144 18.8584 5.47477 18.0417C4.31644 17.2667 3.68311 16.2084 3.68311 15.0667C3.68311 13.9251 4.32477 12.8751 5.47477 12.1084C7.96644 10.4417 12.0164 10.4417 14.5081 12.1084C14.7914 12.3001 14.8748 12.6917 14.6831 12.9751C14.4914 13.2667 14.0998 13.3417 13.8164 13.1501C11.7414 11.7667 8.24144 11.7667 6.16644 13.1501C5.36644 13.6834 4.93311 14.3584 4.93311 15.0667C4.93311 15.7751 5.37477 16.4667 6.16644 17.0001C7.17477 17.6751 8.5331 18.0417 9.99144 18.0417C10.3331 18.0417 10.6164 18.3251 10.6164 18.6667C10.6164 19.0084 10.3414 19.3001 9.99977 19.3001Z" fill="#B92123"/>
</svg>
