<svg width="20" height="20" viewBox="0 0 20 20" fill="none" xmlns="http://www.w3.org/2000/svg">
<path d="M16.75 5.78341C16.75 6.23341 16.5083 6.64175 16.125 6.85008L14.675 7.63341L13.4417 8.29175L10.8833 9.67508C10.6083 9.82508 10.3083 9.90008 10 9.90008C9.69167 9.90008 9.39167 9.82508 9.11667 9.67508L3.875 6.85008C3.49167 6.64175 3.25 6.23341 3.25 5.78341C3.25 5.33341 3.49167 4.92508 3.875 4.71675L5.51667 3.83341L6.825 3.12508L9.11667 1.89175C9.66667 1.59175 10.3333 1.59175 10.8833 1.89175L16.125 4.71675C16.5083 4.92508 16.75 5.33341 16.75 5.78341Z" fill="#B92123"/>
<path d="M8.24993 10.6585L3.37494 8.22512C2.99994 8.03345 2.5666 8.05845 2.20827 8.27512C1.84993 8.49178 1.6416 8.87512 1.6416 9.29178V13.9001C1.6416 14.7001 2.08327 15.4168 2.79993 15.7751L7.67493 18.2085C7.8416 18.2918 8.02494 18.3335 8.20827 18.3335C8.42494 18.3335 8.6416 18.2751 8.83327 18.1501C9.1916 17.9335 9.39993 17.5501 9.39993 17.1335V12.5251C9.40827 11.7335 8.9666 11.0168 8.24993 10.6585Z" fill="#B92123"/>
<path d="M18.3585 9.29169V13.9C18.3585 14.6917 17.9168 15.4084 17.2001 15.7667L12.3251 18.2084C12.1585 18.2917 11.9751 18.3334 11.7918 18.3334C11.5751 18.3334 11.3585 18.275 11.1585 18.15C10.8085 17.9334 10.5918 17.55 10.5918 17.1334V12.5334C10.5918 11.7334 11.0335 11.0167 11.7501 10.6584L13.5418 9.76669L14.7918 9.14169L16.6251 8.22502C17.0001 8.03336 17.4335 8.05002 17.7918 8.27502C18.1418 8.49169 18.3585 8.87502 18.3585 9.29169Z" fill="#B92123"/>
<path d="M14.6749 7.63333L13.4416 8.29167L5.5166 3.83333L6.82493 3.125L14.4749 7.44167C14.5583 7.49167 14.6249 7.55833 14.6749 7.63333Z" fill="#B92123"/>
<path d="M14.7915 9.1416V11.0333C14.7915 11.3749 14.5082 11.6583 14.1665 11.6583C13.8248 11.6583 13.5415 11.3749 13.5415 11.0333V9.7666L14.7915 9.1416Z" fill="#B92123"/>
</svg>
