<svg width="24" height="25" viewBox="0 0 24 25" fill="none" xmlns="http://www.w3.org/2000/svg">
<path d="M17.25 17.5063H6.54375L3.92813 3.1251C3.89752 2.95287 3.80768 2.79676 3.67415 2.68377C3.54062 2.57078 3.37179 2.50802 3.19687 2.50635H1.5" stroke="#B92123" stroke-width="1.5" stroke-linecap="round" stroke-linejoin="round"/>
<path d="M7.5 21.2563C8.53553 21.2563 9.375 20.4169 9.375 19.3813C9.375 18.3458 8.53553 17.5063 7.5 17.5063C6.46447 17.5063 5.625 18.3458 5.625 19.3813C5.625 20.4169 6.46447 21.2563 7.5 21.2563Z" stroke="#B92123" stroke-width="1.5" stroke-linecap="round" stroke-linejoin="round"/>
<path d="M17.25 21.2563C18.2855 21.2563 19.125 20.4169 19.125 19.3813C19.125 18.3458 18.2855 17.5063 17.25 17.5063C16.2145 17.5063 15.375 18.3458 15.375 19.3813C15.375 20.4169 16.2145 21.2563 17.25 21.2563Z" stroke="#B92123" stroke-width="1.5" stroke-linecap="round" stroke-linejoin="round"/>
<path d="M5.85938 13.7563H17.6344C17.985 13.7574 18.3247 13.6349 18.5939 13.4103C18.8631 13.1856 19.0445 12.8733 19.1063 12.5282L20.25 6.25635H4.5" fill="#B92123"/>
<path d="M5.85938 13.7563H17.6344C17.985 13.7574 18.3247 13.6349 18.5939 13.4103C18.8631 13.1856 19.0445 12.8733 19.1063 12.5282L20.25 6.25635H4.5" stroke="#B92123" stroke-width="1.5" stroke-linecap="round" stroke-linejoin="round"/>
</svg>
