<svg width="20" height="21" viewBox="0 0 20 21" fill="none" xmlns="http://www.w3.org/2000/svg">
<path d="M12.2746 2.16675H7.72461V5.80008H12.2746V2.16675Z" fill="#B92123"/>
<path d="M13.5254 2.16675V5.80008H18.2254C17.8004 3.50841 16.1087 2.17508 13.5254 2.16675Z" fill="#B92123"/>
<path d="M1.66699 7.05005V13.9917C1.66699 17.025 3.47533 18.8334 6.50866 18.8334H13.492C16.5253 18.8334 18.3337 17.025 18.3337 13.9917V7.05005H1.66699ZM12.0337 13.9834L10.3003 14.9834C9.93366 15.1917 9.57533 15.3 9.24199 15.3C8.99199 15.3 8.76699 15.2417 8.55866 15.125C8.07533 14.85 7.80866 14.2834 7.80866 13.55V11.55C7.80866 10.8167 8.07533 10.25 8.55866 9.97505C9.04199 9.69172 9.65866 9.74172 10.3003 10.1167L12.0337 11.1167C12.6753 11.4834 13.0253 12 13.0253 12.5584C13.0253 13.1167 12.667 13.6084 12.0337 13.9834Z" fill="#B92123"/>
<path d="M6.47539 2.16675C3.89206 2.17508 2.20039 3.50841 1.77539 5.80008H6.47539V2.16675Z" fill="#B92123"/>
</svg>
