<svg width="24" height="24" viewBox="0 0 24 24" fill="none" xmlns="http://www.w3.org/2000/svg">
<path d="M11.673 7.2221C10.797 7.2221 9.44101 6.2261 8.01301 6.2621C6.12901 6.2861 4.40101 7.3541 3.42901 9.0461C1.47301 12.4421 2.92501 17.4581 4.83301 20.2181C5.76901 21.5621 6.87301 23.0741 8.33701 23.0261C9.74101 22.9661 10.269 22.1141 11.973 22.1141C13.665 22.1141 14.145 23.0261 15.633 22.9901C17.145 22.9661 18.105 21.6221 19.029 20.2661C20.097 18.7061 20.541 17.1941 20.565 17.1101C20.529 17.0981 17.625 15.9821 17.589 12.6221C17.565 9.8141 19.881 8.4701 19.989 8.4101C18.669 6.4781 16.641 6.2621 15.933 6.2141C14.085 6.0701 12.537 7.2221 11.673 7.2221ZM14.793 4.3901C15.573 3.4541 16.089 2.1461 15.945 0.850098C14.829 0.898098 13.485 1.5941 12.681 2.5301C11.961 3.3581 11.337 4.6901 11.505 5.9621C12.741 6.0581 14.013 5.3261 14.793 4.3901Z" fill="black"/>
</svg>
