<svg width="20" height="20" viewBox="0 0 20 20" fill="none" xmlns="http://www.w3.org/2000/svg">
<path d="M10.0001 8.56695C9.15013 8.56695 8.30013 8.41695 7.49179 8.12529C7.16679 8.00862 7.00013 7.65029 7.11679 7.32529C7.24179 7.00029 7.60013 6.83362 7.92513 6.95029C9.26679 7.43362 10.7418 7.43362 12.0835 6.95029C12.4085 6.83362 12.7668 7.00029 12.8835 7.32529C13.0001 7.65029 12.8335 8.00862 12.5085 8.12529C11.7001 8.41695 10.8501 8.56695 10.0001 8.56695Z" fill="black"/>
<path d="M15.8916 18.9587C15.4666 18.9587 14.9999 18.8337 14.5499 18.5753L10.4833 16.317C10.2416 16.1837 9.7666 16.1837 9.52494 16.317L5.45827 18.5753C4.63327 19.0337 3.7916 19.0837 3.14993 18.7003C2.50827 18.3253 2.1416 17.567 2.1416 16.6253V4.88366C2.1416 2.76699 3.8666 1.04199 5.98327 1.04199H14.0249C16.1416 1.04199 17.8666 2.76699 17.8666 4.88366V16.6253C17.8666 17.567 17.4999 18.3253 16.8583 18.7003C16.5666 18.8753 16.2333 18.9587 15.8916 18.9587ZM9.99994 14.967C10.3916 14.967 10.7749 15.0503 11.0833 15.2253L15.1499 17.4837C15.5749 17.7253 15.9666 17.7753 16.2166 17.6253C16.4666 17.4753 16.6083 17.117 16.6083 16.6253V4.88366C16.6083 3.45866 15.4416 2.29199 14.0166 2.29199H5.98327C4.55827 2.29199 3.3916 3.45866 3.3916 4.88366V16.6253C3.3916 17.117 3.53327 17.4837 3.78327 17.6253C4.03327 17.767 4.4166 17.7253 4.84994 17.4837L8.9166 15.2253C9.22494 15.0503 9.60827 14.967 9.99994 14.967Z" fill="black"/>
<path d="M15.8916 18.9587C15.4666 18.9587 14.9999 18.8337 14.5499 18.5753L10.4833 16.317C10.2416 16.1837 9.7666 16.1837 9.52494 16.317L5.45827 18.5753C4.63327 19.0337 3.7916 19.0837 3.14993 18.7003C2.50827 18.3253 2.1416 17.567 2.1416 16.6253V4.88366C2.1416 2.76699 3.8666 1.04199 5.98327 1.04199H14.0249C16.1416 1.04199 17.8666 2.76699 17.8666 4.88366V16.6253C17.8666 17.567 17.4999 18.3253 16.8583 18.7003C16.5666 18.8753 16.2333 18.9587 15.8916 18.9587ZM9.99994 14.967C10.3916 14.967 10.7749 15.0503 11.0833 15.2253L15.1499 17.4837C15.5749 17.7253 15.9666 17.7753 16.2166 17.6253C16.4666 17.4753 16.6083 17.117 16.6083 16.6253V4.88366C16.6083 3.45866 15.4416 2.29199 14.0166 2.29199H5.98327C4.55827 2.29199 3.3916 3.45866 3.3916 4.88366V16.6253C3.3916 17.117 3.53327 17.4837 3.78327 17.6253C4.03327 17.767 4.4166 17.7253 4.84994 17.4837L8.9166 15.2253C9.22494 15.0503 9.60827 14.967 9.99994 14.967Z" fill="black"/>
</svg>
