<svg width="18" height="18" viewBox="0 0 18 18" fill="none" xmlns="http://www.w3.org/2000/svg">
<path d="M12.9303 17.0625H5.07025C2.97025 17.0625 1.63525 15.81 1.51525 13.7175L1.12525 7.53C1.06525 6.5925 1.38775 5.6925 2.03275 5.01C2.67025 4.3275 3.57025 3.9375 4.50025 3.9375C4.74025 3.9375 4.97275 3.795 5.08525 3.57L5.62525 2.4975C6.06775 1.62 7.17775 0.9375 8.14525 0.9375H9.86275C10.8303 0.9375 11.9328 1.62 12.3753 2.49L12.9153 3.585C13.0278 3.795 13.2528 3.9375 13.5003 3.9375C14.4303 3.9375 15.3303 4.3275 15.9678 5.01C16.6128 5.7 16.9353 6.5925 16.8753 7.53L16.4853 13.725C16.3503 15.8475 15.0528 17.0625 12.9303 17.0625ZM8.14525 2.0625C7.59025 2.0625 6.88525 2.4975 6.63025 3L6.09025 4.08C5.77525 4.6875 5.16775 5.0625 4.50025 5.0625C3.87025 5.0625 3.28525 5.3175 2.85025 5.775C2.42275 6.2325 2.20525 6.8325 2.25025 7.455L2.64025 13.65C2.73025 15.165 3.54775 15.9375 5.07025 15.9375H12.9303C14.4453 15.9375 15.2628 15.165 15.3603 13.65L15.7503 7.455C15.7878 6.8325 15.5778 6.2325 15.1503 5.775C14.7153 5.3175 14.1303 5.0625 13.5003 5.0625C12.8328 5.0625 12.2253 4.6875 11.9103 4.095L11.3628 3C11.1153 2.505 10.4103 2.07 9.85525 2.07H8.14525V2.0625Z" fill="#B92123"/>
<path d="M10.125 6.5625H7.875C7.5675 6.5625 7.3125 6.3075 7.3125 6C7.3125 5.6925 7.5675 5.4375 7.875 5.4375H10.125C10.4325 5.4375 10.6875 5.6925 10.6875 6C10.6875 6.3075 10.4325 6.5625 10.125 6.5625Z" fill="#B92123"/>
<path d="M9 14.0625C7.3425 14.0625 6 12.72 6 11.0625C6 9.405 7.3425 8.0625 9 8.0625C10.6575 8.0625 12 9.405 12 11.0625C12 12.72 10.6575 14.0625 9 14.0625ZM9 9.1875C7.965 9.1875 7.125 10.0275 7.125 11.0625C7.125 12.0975 7.965 12.9375 9 12.9375C10.035 12.9375 10.875 12.0975 10.875 11.0625C10.875 10.0275 10.035 9.1875 9 9.1875Z" fill="#B92123"/>
</svg>
