<svg width="20" height="20" viewBox="0 0 20 20" fill="none" xmlns="http://www.w3.org/2000/svg">
<path d="M14.7835 18.9585H5.21683C3.14183 18.9585 1.4585 17.2752 1.4585 15.2002V9.59184C1.4585 7.51684 3.14183 5.8335 5.21683 5.8335H14.7835C16.8585 5.8335 18.5418 7.51684 18.5418 9.59184V10.7918C18.5418 11.1335 18.2585 11.4168 17.9168 11.4168H16.2335C15.9418 11.4168 15.6752 11.5252 15.4835 11.7252L15.4752 11.7335C15.2418 11.9585 15.1335 12.2668 15.1585 12.5835C15.2085 13.1335 15.7335 13.5751 16.3335 13.5751H17.9168C18.2585 13.5751 18.5418 13.8585 18.5418 14.2001V15.1918C18.5418 17.2751 16.8585 18.9585 14.7835 18.9585ZM5.21683 7.0835C3.8335 7.0835 2.7085 8.2085 2.7085 9.59184V15.2002C2.7085 16.5835 3.8335 17.7085 5.21683 17.7085H14.7835C16.1668 17.7085 17.2918 16.5835 17.2918 15.2002V14.8335H16.3335C15.0752 14.8335 14.0085 13.9002 13.9085 12.7002C13.8418 12.0168 14.0918 11.3418 14.5918 10.8502C15.0252 10.4085 15.6085 10.1668 16.2335 10.1668H17.2918V9.59184C17.2918 8.2085 16.1668 7.0835 14.7835 7.0835H5.21683Z" fill="black"/>
<path d="M2.0835 10.9665C1.74183 10.9665 1.4585 10.6832 1.4585 10.3415V6.53322C1.4585 5.29155 2.24183 4.16651 3.40016 3.72484L10.0168 1.22484C10.7002 0.966508 11.4585 1.05822 12.0502 1.47488C12.6502 1.89155 13.0002 2.56654 13.0002 3.29154V6.4582C13.0002 6.79987 12.7168 7.0832 12.3752 7.0832C12.0335 7.0832 11.7502 6.79987 11.7502 6.4582V3.29154C11.7502 2.97488 11.6002 2.6832 11.3335 2.49987C11.0668 2.31653 10.7502 2.27486 10.4502 2.39153L3.8335 4.89153C3.1585 5.14986 2.70016 5.80822 2.70016 6.53322V10.3415C2.7085 10.6915 2.42516 10.9665 2.0835 10.9665Z" fill="black"/>
<path d="M16.3331 14.8331C15.0747 14.8331 14.0081 13.8998 13.9081 12.6998C13.8414 12.0082 14.0914 11.3332 14.5914 10.8415C15.0164 10.4082 15.5997 10.1665 16.2247 10.1665H17.9581C18.7831 10.1915 19.4164 10.8415 19.4164 11.6415V13.3582C19.4164 14.1582 18.7831 14.8081 17.9831 14.8331H16.3331ZM17.9414 11.4165H16.2331C15.9414 11.4165 15.6747 11.5248 15.4831 11.7248C15.2414 11.9582 15.1247 12.2748 15.1581 12.5915C15.2081 13.1415 15.7331 13.5831 16.3331 13.5831H17.9664C18.0747 13.5831 18.1747 13.4832 18.1747 13.3582V11.6415C18.1747 11.5165 18.0747 11.4248 17.9414 11.4165Z" fill="black"/>
<path d="M11.6668 10.625H5.8335C5.49183 10.625 5.2085 10.3417 5.2085 10C5.2085 9.65833 5.49183 9.375 5.8335 9.375H11.6668C12.0085 9.375 12.2918 9.65833 12.2918 10C12.2918 10.3417 12.0085 10.625 11.6668 10.625Z" fill="black"/>
</svg>
