<svg width="20" height="21" viewBox="0 0 20 21" fill="none" xmlns="http://www.w3.org/2000/svg">
<path d="M4.37496 4.08952C3.79996 4.08952 3.33329 4.55618 3.33329 5.13118V7.42285C3.33329 7.64387 3.2455 7.85583 3.08921 8.01211C2.93293 8.16839 2.72097 8.25618 2.49996 8.25618C2.27895 8.25618 2.06698 8.16839 1.9107 8.01211C1.75442 7.85583 1.66663 7.64387 1.66663 7.42285V5.13118C1.66663 4.41289 1.95197 3.72401 2.45988 3.2161C2.96779 2.70819 3.65666 2.42285 4.37496 2.42285H6.66663C6.88764 2.42285 7.0996 2.51065 7.25588 2.66693C7.41216 2.82321 7.49996 3.03517 7.49996 3.25618C7.49996 3.4772 7.41216 3.68916 7.25588 3.84544C7.0996 4.00172 6.88764 4.08952 6.66663 4.08952H4.37496ZM4.37496 17.4229C3.79996 17.4229 3.33329 16.9562 3.33329 16.3812V14.0895C3.33329 13.8685 3.2455 13.6565 3.08921 13.5003C2.93293 13.344 2.72097 13.2562 2.49996 13.2562C2.27895 13.2562 2.06698 13.344 1.9107 13.5003C1.75442 13.6565 1.66663 13.8685 1.66663 14.0895V16.3812C1.66663 16.7368 1.73668 17.089 1.87279 17.4176C2.00889 17.7462 2.20839 18.0448 2.45988 18.2963C2.71137 18.5478 3.00994 18.7473 3.33853 18.8834C3.66712 19.0195 4.0193 19.0895 4.37496 19.0895H6.66663C6.88764 19.0895 7.0996 19.0017 7.25588 18.8454C7.41216 18.6892 7.49996 18.4772 7.49996 18.2562C7.49996 18.0352 7.41216 17.8232 7.25588 17.6669C7.0996 17.5106 6.88764 17.4229 6.66663 17.4229H4.37496ZM16.6666 5.13118C16.6666 4.55618 16.2 4.08952 15.625 4.08952H13.3333C13.1123 4.08952 12.9003 4.00172 12.744 3.84544C12.5878 3.68916 12.5 3.4772 12.5 3.25618C12.5 3.03517 12.5878 2.82321 12.744 2.66693C12.9003 2.51065 13.1123 2.42285 13.3333 2.42285H15.625C15.9806 2.42285 16.3328 2.4929 16.6614 2.62901C16.99 2.76512 17.2885 2.96461 17.54 3.2161C17.7915 3.4676 17.991 3.76616 18.1271 4.09475C18.2632 4.42334 18.3333 4.77552 18.3333 5.13118V7.42285C18.3333 7.64387 18.2455 7.85583 18.0892 8.01211C17.9329 8.16839 17.721 8.25618 17.5 8.25618C17.2789 8.25618 17.067 8.16839 16.9107 8.01211C16.7544 7.85583 16.6666 7.64387 16.6666 7.42285V5.13118ZM15.625 17.4229C16.2 17.4229 16.6666 16.9562 16.6666 16.3812V14.0895C16.6666 13.8685 16.7544 13.6565 16.9107 13.5003C17.067 13.344 17.2789 13.2562 17.5 13.2562C17.721 13.2562 17.9329 13.344 18.0892 13.5003C18.2455 13.6565 18.3333 13.8685 18.3333 14.0895V16.3812C18.3333 16.7368 18.2632 17.089 18.1271 17.4176C17.991 17.7462 17.7915 18.0448 17.54 18.2963C17.2885 18.5478 16.99 18.7473 16.6614 18.8834C16.3328 19.0195 15.9806 19.0895 15.625 19.0895H13.3333C13.1123 19.0895 12.9003 19.0017 12.744 18.8454C12.5878 18.6892 12.5 18.4772 12.5 18.2562C12.5 18.0352 12.5878 17.8232 12.744 17.6669C12.9003 17.5106 13.1123 17.4229 13.3333 17.4229H15.625ZM9.99996 11.5895C10.221 11.5895 10.4329 11.5017 10.5892 11.3454C10.7455 11.1892 10.8333 10.9772 10.8333 10.7562C10.8333 10.5352 10.7455 10.3232 10.5892 10.1669C10.4329 10.0106 10.221 9.92285 9.99996 9.92285C9.77894 9.92285 9.56698 10.0106 9.4107 10.1669C9.25442 10.3232 9.16663 10.5352 9.16663 10.7562C9.16663 10.9772 9.25442 11.1892 9.4107 11.3454C9.56698 11.5017 9.77894 11.5895 9.99996 11.5895ZM9.03996 6.58952C8.64579 6.58952 8.28496 6.80868 8.10829 7.15452L7.70163 8.25618H7.22246C6.45579 8.25618 5.83329 8.75285 5.83329 9.50618V12.7262C5.83329 13.4787 6.45496 14.0895 7.22246 14.0895H12.7775C13.5441 14.0895 14.1666 13.4787 14.1666 12.7262V9.50618C14.1666 8.75285 13.545 8.25618 12.7775 8.25618H12.2983L11.8916 7.15452C11.8036 6.98352 11.67 6.84021 11.5056 6.74049C11.3411 6.64076 11.1523 6.58851 10.96 6.58952H9.03996ZM9.99996 12.4229C9.55793 12.4229 9.13401 12.2473 8.82145 11.9347C8.50889 11.6221 8.33329 11.1982 8.33329 10.7562C8.33329 10.3142 8.50889 9.89023 8.82145 9.57767C9.13401 9.26511 9.55793 9.08952 9.99996 9.08952C10.442 9.08952 10.8659 9.26511 11.1785 9.57767C11.491 9.89023 11.6666 10.3142 11.6666 10.7562C11.6666 11.1982 11.491 11.6221 11.1785 11.9347C10.8659 12.2473 10.442 12.4229 9.99996 12.4229Z" fill="#B92123"/>
</svg>
