<svg width="16" height="16" viewBox="0 0 16 16" fill="none" xmlns="http://www.w3.org/2000/svg">
<path d="M9.52723 5.78917C9.0618 5.32598 8.5097 4.95901 7.90245 4.70919C7.2952 4.45938 6.64469 4.33162 5.98806 4.3332C5.33144 4.33479 4.68155 4.46569 4.07552 4.71844C3.46948 4.97118 2.91916 5.34082 2.45598 5.80625C1.99279 6.27168 1.62582 6.82378 1.376 7.43103C1.12619 8.03828 0.998428 8.68879 1.00001 9.34541C1.0016 10.002 1.1325 10.6519 1.38525 11.258C1.63799 11.864 2.00763 12.4143 2.47306 12.8775C3.41303 13.8129 4.68611 14.3367 6.01222 14.3335C7.33834 14.3303 8.60887 13.8004 9.54431 12.8604C10.4798 11.9204 11.0035 10.6474 11.0003 9.32125C10.9971 7.99514 10.4672 6.72461 9.52723 5.78917ZM9.52723 5.78917L14.3339 1M14.3339 1H11.0006M14.3339 1V4.33333" stroke="#6C6C6C" stroke-width="1.5" stroke-linecap="round" stroke-linejoin="round"/>
</svg>
