<svg width="20" height="20" viewBox="0 0 20 20" fill="none" xmlns="http://www.w3.org/2000/svg">
<path d="M11.8602 8.12217C11.3948 7.65899 10.8427 7.29202 10.2355 7.0422C9.62821 6.79239 8.9777 6.66463 8.32107 6.66621C7.66445 6.6678 7.01456 6.7987 6.40852 7.05145C5.80249 7.30419 5.25217 7.67383 4.78898 8.13926C4.3258 8.60468 3.95883 9.15678 3.70901 9.76403C3.4592 10.3713 3.33144 11.0218 3.33302 11.6784C3.33461 12.335 3.46551 12.9849 3.71826 13.591C3.971 14.197 4.34064 14.7473 4.80607 15.2105C5.74604 16.1459 7.01911 16.6697 8.34523 16.6665C9.67135 16.6633 10.9419 16.1334 11.8773 15.1934C12.8128 14.2535 13.3365 12.9804 13.3333 11.6543C13.3301 10.3281 12.8002 9.05761 11.8602 8.12217ZM11.8602 8.12217L16.6669 3.33301M16.6669 3.33301H13.3336M16.6669 3.33301V6.66634" stroke="#6C6C6C" stroke-width="1.5" stroke-linecap="round" stroke-linejoin="round"/>
</svg>
