<svg width="20" height="21" viewBox="0 0 20 21" fill="none" xmlns="http://www.w3.org/2000/svg">
<path d="M3.33333 5.75618H5V15.7562H3.33333V5.75618ZM5.83333 5.75618H6.66667V15.7562H5.83333V5.75618ZM7.5 5.75618H10V15.7562H7.5V5.75618ZM10.8333 5.75618H11.6667V15.7562H10.8333V5.75618ZM13.3333 5.75618H15V15.7562H13.3333V5.75618ZM15.8333 5.75618H16.6667V15.7562H15.8333V5.75618ZM1.66667 4.08952V7.42285H0V4.08952C0 3.64749 0.175595 3.22357 0.488155 2.91101C0.800716 2.59845 1.22464 2.42285 1.66667 2.42285H5V4.08952H1.66667ZM18.3333 2.42285C18.7754 2.42285 19.1993 2.59845 19.5118 2.91101C19.8244 3.22357 20 3.64749 20 4.08952V7.42285H18.3333V4.08952H15V2.42285H18.3333ZM1.66667 14.0895V17.4229H5V19.0895H1.66667C1.22464 19.0895 0.800716 18.9139 0.488155 18.6014C0.175595 18.2888 0 17.8649 0 17.4229V14.0895H1.66667ZM18.3333 17.4229V14.0895H20V17.4229C20 17.8649 19.8244 18.2888 19.5118 18.6014C19.1993 18.9139 18.7754 19.0895 18.3333 19.0895H15V17.4229H18.3333Z" fill="#B92123"/>
</svg>
