<svg width="25" height="26" viewBox="0 0 25 26" fill="none" xmlns="http://www.w3.org/2000/svg">
<path d="M5.26879 11.7562C5.26879 10.8722 5.4429 9.99689 5.78118 9.18021C6.11946 8.36354 6.61528 7.62149 7.24033 6.99644C7.86539 6.37139 8.60743 5.87556 9.42411 5.53729C10.2408 5.19901 11.1161 5.0249 12 5.0249C12.884 5.0249 13.7593 5.19901 14.576 5.53729C15.3927 5.87556 16.1347 6.37139 16.7598 6.99644C17.3848 7.62149 17.8806 8.36354 18.2189 9.18021C18.5572 9.99689 18.7313 10.8722 18.7313 11.7562V11.7562C18.7313 15.1124 19.4344 17.0624 20.0532 18.1312C20.1189 18.245 20.1535 18.3741 20.1537 18.5055C20.1538 18.6369 20.1193 18.7661 20.0538 18.88C19.9883 18.9939 19.894 19.0887 19.7804 19.1547C19.6667 19.2207 19.5377 19.2557 19.4063 19.2562H4.59379C4.46237 19.2557 4.33337 19.2207 4.21972 19.1547C4.10607 19.0887 4.01177 18.9939 3.94626 18.88C3.88074 18.7661 3.84632 18.6369 3.84644 18.5055C3.84655 18.3741 3.8812 18.245 3.94692 18.1312C4.56567 17.0624 5.26879 15.1124 5.26879 11.7562Z" stroke="#191C1F" stroke-width="1.5" stroke-linecap="round" stroke-linejoin="round"/>
<path d="M9 19.2563V20.0063C9 20.802 9.31607 21.5651 9.87868 22.1277C10.4413 22.6903 11.2044 23.0063 12 23.0063C12.7956 23.0063 13.5587 22.6903 14.1213 22.1277C14.6839 21.5651 15 20.802 15 20.0063V19.2563" stroke="#191C1F" stroke-width="1.5" stroke-linecap="round" stroke-linejoin="round"/>
<path d="M17.1937 3.50635C18.7208 4.4703 19.9532 5.83573 20.7562 7.45322" stroke="#191C1F" stroke-width="1.5" stroke-linecap="round" stroke-linejoin="round"/>
<path d="M3.24377 7.45322C4.04677 5.83573 5.27923 4.4703 6.80627 3.50635" stroke="#191C1F" stroke-width="1.5" stroke-linecap="round" stroke-linejoin="round"/>
<circle cx="18" cy="7.25635" r="5.9" fill="#EE5858" stroke="white" stroke-width="1.8"/>
</svg>
