<svg width="24" height="25" viewBox="0 0 24 25" fill="none" xmlns="http://www.w3.org/2000/svg">
<path d="M12 16.0063C9.93 16.0063 8.25 14.3263 8.25 12.2563C8.25 10.1863 9.93 8.50635 12 8.50635C14.07 8.50635 15.75 10.1863 15.75 12.2563C15.75 14.3263 14.07 16.0063 12 16.0063ZM12 10.0063C10.76 10.0063 9.75 11.0163 9.75 12.2563C9.75 13.4963 10.76 14.5063 12 14.5063C13.24 14.5063 14.25 13.4963 14.25 12.2563C14.25 11.0163 13.24 10.0063 12 10.0063Z" fill="#393939"/>
<path d="M15.21 22.4461C15 22.4461 14.79 22.4161 14.58 22.3661C13.96 22.1961 13.44 21.8061 13.11 21.2561L12.99 21.0561C12.4 20.0361 11.59 20.0361 11 21.0561L10.89 21.2461C10.56 21.8061 10.04 22.2061 9.42 22.3661C8.79 22.5361 8.14 22.4461 7.59 22.1161L5.87 21.1261C5.26 20.7761 4.82 20.2061 4.63 19.5161C4.45 18.8261 4.54 18.1161 4.89 17.5061C5.18 16.9961 5.26 16.5361 5.09 16.2461C4.92 15.9561 4.49 15.7861 3.9 15.7861C2.44 15.7861 1.25 14.5961 1.25 13.1361V11.3761C1.25 9.91615 2.44 8.72615 3.9 8.72615C4.49 8.72615 4.92 8.55615 5.09 8.26615C5.26 7.97615 5.19 7.51615 4.89 7.00615C4.54 6.39615 4.45 5.67615 4.63 4.99615C4.81 4.30615 5.25 3.73615 5.87 3.38615L7.6 2.39615C8.73 1.72615 10.22 2.11615 10.9 3.26615L11.02 3.46615C11.61 4.48615 12.42 4.48615 13.01 3.46615L13.12 3.27615C13.8 2.11615 15.29 1.72615 16.43 2.40615L18.15 3.39615C18.76 3.74615 19.2 4.31615 19.39 5.00615C19.57 5.69615 19.48 6.40615 19.13 7.01615C18.84 7.52615 18.76 7.98615 18.93 8.27615C19.1 8.56615 19.53 8.73615 20.12 8.73615C21.58 8.73615 22.77 9.92615 22.77 11.3861V13.1461C22.77 14.6061 21.58 15.7961 20.12 15.7961C19.53 15.7961 19.1 15.9661 18.93 16.2561C18.76 16.5461 18.83 17.0061 19.13 17.5161C19.48 18.1261 19.58 18.8461 19.39 19.5261C19.21 20.2161 18.77 20.7861 18.15 21.1361L16.42 22.1261C16.04 22.3361 15.63 22.4461 15.21 22.4461ZM12 18.7461C12.89 18.7461 13.72 19.3061 14.29 20.2961L14.4 20.4861C14.52 20.6961 14.72 20.8461 14.96 20.9061C15.2 20.9661 15.44 20.9361 15.64 20.8161L17.37 19.8161C17.63 19.6661 17.83 19.4161 17.91 19.1161C17.99 18.8161 17.95 18.5061 17.8 18.2461C17.23 17.2661 17.16 16.2561 17.6 15.4861C18.04 14.7161 18.95 14.2761 20.09 14.2761C20.73 14.2761 21.24 13.7661 21.24 13.1261V11.3661C21.24 10.7361 20.73 10.2161 20.09 10.2161C18.95 10.2161 18.04 9.77615 17.6 9.00615C17.16 8.23615 17.23 7.22615 17.8 6.24615C17.95 5.98615 17.99 5.67615 17.91 5.37615C17.83 5.07615 17.64 4.83615 17.38 4.67615L15.65 3.68615C15.22 3.42615 14.65 3.57615 14.39 4.01615L14.28 4.20615C13.71 5.19615 12.88 5.75615 11.99 5.75615C11.1 5.75615 10.27 5.19615 9.7 4.20615L9.59 4.00615C9.34 3.58615 8.78 3.43615 8.35 3.68615L6.62 4.68615C6.36 4.83615 6.16 5.08615 6.08 5.38615C6 5.68615 6.04 5.99615 6.19 6.25615C6.76 7.23615 6.83 8.24615 6.39 9.01615C5.95 9.78615 5.04 10.2261 3.9 10.2261C3.26 10.2261 2.75 10.7361 2.75 11.3761V13.1361C2.75 13.7661 3.26 14.2861 3.9 14.2861C5.04 14.2861 5.95 14.7261 6.39 15.4961C6.83 16.2661 6.76 17.2761 6.19 18.2561C6.04 18.5161 6 18.8261 6.08 19.1261C6.16 19.4261 6.35 19.6661 6.61 19.8261L8.34 20.8161C8.55 20.9461 8.8 20.9761 9.03 20.9161C9.27 20.8561 9.47 20.6961 9.6 20.4861L9.71 20.2961C10.28 19.3161 11.11 18.7461 12 18.7461Z" fill="#292D32"/>
</svg>
