<svg width="48" height="49" viewBox="0 0 48 49" fill="none" xmlns="http://www.w3.org/2000/svg">
<rect y="0.756348" width="48" height="48" rx="12" fill="#F8E9E9"/>
<path d="M34 20.0063H28C27.59 20.0063 27.25 19.6663 27.25 19.2563C27.25 18.8463 27.59 18.5063 28 18.5063H34C34.41 18.5063 34.75 18.8463 34.75 19.2563C34.75 19.6663 34.41 20.0063 34 20.0063Z" fill="#B92123"/>
<path d="M18 20.0063H14C13.59 20.0063 13.25 19.6663 13.25 19.2563C13.25 18.8463 13.59 18.5063 14 18.5063H18C18.41 18.5063 18.75 18.8463 18.75 19.2563C18.75 19.6663 18.41 20.0063 18 20.0063Z" fill="#B92123"/>
<path d="M22 23.5063C19.66 23.5063 17.75 21.5963 17.75 19.2563C17.75 16.9163 19.66 15.0063 22 15.0063C24.34 15.0063 26.25 16.9163 26.25 19.2563C26.25 21.5963 24.34 23.5063 22 23.5063ZM22 16.5063C20.48 16.5063 19.25 17.7363 19.25 19.2563C19.25 20.7763 20.48 22.0063 22 22.0063C23.52 22.0063 24.75 20.7763 24.75 19.2563C24.75 17.7363 23.52 16.5063 22 16.5063Z" fill="#B92123"/>
<path d="M34 31.0063H30C29.59 31.0063 29.25 30.6663 29.25 30.2563C29.25 29.8463 29.59 29.5063 30 29.5063H34C34.41 29.5063 34.75 29.8463 34.75 30.2563C34.75 30.6663 34.41 31.0063 34 31.0063Z" fill="#B92123"/>
<path d="M20 31.0063H14C13.59 31.0063 13.25 30.6663 13.25 30.2563C13.25 29.8463 13.59 29.5063 14 29.5063H20C20.41 29.5063 20.75 29.8463 20.75 30.2563C20.75 30.6663 20.41 31.0063 20 31.0063Z" fill="#B92123"/>
<path d="M26 34.5063C23.66 34.5063 21.75 32.5963 21.75 30.2563C21.75 27.9163 23.66 26.0063 26 26.0063C28.34 26.0063 30.25 27.9163 30.25 30.2563C30.25 32.5963 28.34 34.5063 26 34.5063ZM26 27.5063C24.48 27.5063 23.25 28.7363 23.25 30.2563C23.25 31.7763 24.48 33.0063 26 33.0063C27.52 33.0063 28.75 31.7763 28.75 30.2563C28.75 28.7363 27.52 27.5063 26 27.5063Z" fill="#B92123"/>
</svg>
