<svg width="20" height="20" viewBox="0 0 20 20" fill="none" xmlns="http://www.w3.org/2000/svg">
<path d="M5.73329 7.40829C5.65344 7.40692 5.57419 7.4222 5.50057 7.45315C5.42696 7.4841 5.3606 7.53005 5.30572 7.58806C5.25084 7.64608 5.20865 7.71489 5.18183 7.79011C5.15501 7.86533 5.14416 7.94531 5.14996 8.02495L5.62496 15.05C5.62496 15.492 5.80055 15.9159 6.11311 16.2285C6.42567 16.541 6.84959 16.7166 7.29162 16.7166H12.7083C13.1503 16.7166 13.5742 16.541 13.8868 16.2285C14.1994 15.9159 14.375 15.492 14.375 15.05L14.85 8.02495C14.8558 7.94531 14.8449 7.86533 14.8181 7.79011C14.7913 7.71489 14.7491 7.64608 14.6942 7.58806C14.6393 7.53005 14.573 7.4841 14.4993 7.45315C14.4257 7.4222 14.3465 7.40692 14.2666 7.40829H5.73329ZM9.37496 14.2166C9.37496 14.3824 9.30911 14.5414 9.1919 14.6586C9.07469 14.7758 8.91572 14.8416 8.74996 14.8416C8.5842 14.8416 8.42522 14.7758 8.30801 14.6586C8.1908 14.5414 8.12496 14.3824 8.12496 14.2166V10.4666C8.12496 10.3009 8.1908 10.1419 8.30801 10.0247C8.42522 9.90747 8.5842 9.84162 8.74996 9.84162C8.91572 9.84162 9.07469 9.90747 9.1919 10.0247C9.30911 10.1419 9.37496 10.3009 9.37496 10.4666V14.2166ZM11.875 14.2166C11.875 14.3824 11.8091 14.5414 11.6919 14.6586C11.5747 14.7758 11.4157 14.8416 11.25 14.8416C11.0842 14.8416 10.9252 14.7758 10.808 14.6586C10.6908 14.5414 10.625 14.3824 10.625 14.2166V10.4666C10.625 10.3009 10.6908 10.1419 10.808 10.0247C10.9252 9.90747 11.0842 9.84162 11.25 9.84162C11.4157 9.84162 11.5747 9.90747 11.6919 10.0247C11.8091 10.1419 11.875 10.3009 11.875 10.4666V14.2166Z" fill="#B92123"/>
<path d="M15.8332 6.4082H4.1665C4.00074 6.4082 3.84177 6.34236 3.72456 6.22514C3.60735 6.10793 3.5415 5.94896 3.5415 5.7832C3.5415 5.61744 3.60735 5.45847 3.72456 5.34126C3.84177 5.22405 4.00074 5.1582 4.1665 5.1582H15.8332C15.9989 5.1582 16.1579 5.22405 16.2751 5.34126C16.3923 5.45847 16.4582 5.61744 16.4582 5.7832C16.4582 5.94896 16.3923 6.10793 16.2751 6.22514C16.1579 6.34236 15.9989 6.4082 15.8332 6.4082Z" fill="#B92123"/>
<path d="M12.0832 5.7832V4.11654C12.0832 3.89552 11.9954 3.68356 11.8391 3.52728C11.6828 3.371 11.4709 3.2832 11.2498 3.2832H8.74984C8.52882 3.2832 8.31686 3.371 8.16058 3.52728C8.0043 3.68356 7.9165 3.89552 7.9165 4.11654V5.7832" fill="#B92123"/>
</svg>
