<svg width="25" height="30" viewBox="0 0 25 30" fill="none" xmlns="http://www.w3.org/2000/svg">
<path d="M22.2207 20.689C23.234 20.2305 23.6659 19.0316 23.3851 17.9555C23.1424 17.0251 23.0159 16.0578 23.0002 15.0535C22.9837 14.0119 23.1209 12.9805 23.3992 11.9593C23.688 10.8999 23.245 9.72156 22.2446 9.26881V9.26881C21.2408 8.81452 20.0292 9.24796 19.6957 10.2981C19.1952 11.8743 18.9545 13.4837 18.9736 15.1068C18.9922 16.675 19.2331 18.204 19.6961 19.6663C20.0268 20.7106 21.2227 21.1407 22.2207 20.689V20.689Z" fill="#E9EEF2"/>
<path d="M5.65462 28.3464C6.64433 27.8552 7.04848 26.6533 6.61466 25.6371C5.08731 22.0594 4.30695 18.5016 4.30695 15.0802C4.30695 11.6269 5.0915 8.03622 6.62696 4.39238C7.05554 3.37529 6.64813 2.17978 5.65659 1.69502V1.69502C4.66273 1.20914 3.45555 1.61932 3.02119 2.63675C1.22356 6.84745 0.306947 11.025 0.306947 15.0802C0.306946 19.1284 1.22033 23.278 3.01167 27.4228C3.45036 28.4378 4.66413 28.838 5.65462 28.3464V28.3464Z" fill="#E9EEF2"/>
<path d="M14.017 24.6382C15.0023 24.1455 15.3945 22.9511 15.0009 21.9221C14.116 19.6087 13.667 17.1859 13.667 14.6799C13.667 12.2929 14.0728 10.0776 14.8844 8.06987C15.2963 7.05083 14.9741 5.83995 14.0189 5.2962V5.2962C13.0595 4.75011 11.8287 5.08389 11.386 6.09512C10.2447 8.70214 9.66696 11.5685 9.66696 14.6799C9.66696 17.8004 10.2465 20.8304 11.4055 23.7102C11.8179 24.7349 13.029 25.1322 14.017 24.6382V24.6382Z" fill="#E9EEF2"/>
</svg>
