<svg width="20" height="22" viewBox="0 0 20 22" fill="none" xmlns="http://www.w3.org/2000/svg">
<path d="M1.42857 20.57H6.70286V13.3101C6.70286 12.9831 6.81381 12.709 7.03571 12.4879C7.25667 12.2658 7.53048 12.1547 7.85714 12.1547H12.1429C12.4695 12.1547 12.7438 12.2658 12.9657 12.4879C13.1867 12.709 13.2971 12.9831 13.2971 13.3101V20.57H18.5714V8.14079C18.5714 7.99398 18.5395 7.86051 18.4757 7.7404C18.4119 7.62028 18.3248 7.51541 18.2143 7.4258L10.5229 1.62301C10.3762 1.49527 10.2019 1.43139 10 1.43139C9.7981 1.43139 9.62429 1.49527 9.47857 1.62301L1.78571 7.4258C1.67619 7.51732 1.58905 7.62219 1.52429 7.7404C1.45952 7.85861 1.42762 7.99207 1.42857 8.14079V20.57ZM0 20.57V8.14079C0 7.77472 0.0819047 7.42819 0.245714 7.1012C0.409524 6.77422 0.635238 6.50491 0.922857 6.29327L8.61571 0.461879C9.01857 0.15396 9.47857 0 9.99571 0C10.5129 0 10.9757 0.15396 11.3843 0.461879L19.0771 6.29184C19.3657 6.50348 19.5914 6.77326 19.7543 7.1012C19.9181 7.42819 20 7.77472 20 8.14079V20.57C20 20.9533 19.8576 21.2874 19.5729 21.5724C19.2881 21.8575 18.9543 22 18.5714 22H13.0229C12.6952 22 12.421 21.8894 12.2 21.6682C11.979 21.4461 11.8686 21.1716 11.8686 20.8446V13.5861H8.13143V20.8446C8.13143 21.1725 8.02095 21.4471 7.8 21.6682C7.57905 21.8894 7.30524 22 6.97857 22H1.42857C1.04571 22 0.711904 21.8575 0.427143 21.5724C0.142381 21.2874 0 20.9533 0 20.57Z" fill="#B92123"/>
</svg>
