<svg width="15" height="16" viewBox="0 0 15 16" fill="none" xmlns="http://www.w3.org/2000/svg">
<g clip-path="url(#clip0_378_2081)">
<path d="M10.9204 4.85791L11.5796 5.51709L6.09375 11.0029L3.42041 8.32959L4.07959 7.67041L6.09375 9.68457L10.9204 4.85791ZM7.5 0.5C8.18848 0.5 8.85254 0.587891 9.49219 0.763672C10.1318 0.939453 10.73 1.19092 11.2866 1.51807C11.8433 1.84521 12.3486 2.23584 12.8027 2.68994C13.2568 3.14404 13.6475 3.65186 13.9746 4.21338C14.3018 4.7749 14.5532 5.37305 14.729 6.00781C14.9048 6.64258 14.9951 7.30664 15 8C15 8.68848 14.9121 9.35254 14.7363 9.99219C14.5605 10.6318 14.3091 11.23 13.9819 11.7866C13.6548 12.3433 13.2642 12.8486 12.8101 13.3027C12.356 13.7568 11.8481 14.1475 11.2866 14.4746C10.7251 14.8018 10.127 15.0532 9.49219 15.229C8.85742 15.4048 8.19336 15.4951 7.5 15.5C6.81152 15.5 6.14746 15.4121 5.50781 15.2363C4.86816 15.0605 4.27002 14.8091 3.71338 14.4819C3.15674 14.1548 2.65137 13.7642 2.19727 13.3101C1.74316 12.856 1.35254 12.3481 1.02539 11.7866C0.698242 11.2251 0.446777 10.6294 0.270996 9.99951C0.0952148 9.36963 0.00488281 8.70312 0 8C0 7.31152 0.0878906 6.64746 0.263672 6.00781C0.439453 5.36816 0.690918 4.77002 1.01807 4.21338C1.34521 3.65674 1.73584 3.15137 2.18994 2.69727C2.64404 2.24316 3.15186 1.85254 3.71338 1.52539C4.2749 1.19824 4.87061 0.946777 5.50049 0.770996C6.13037 0.595215 6.79688 0.504883 7.5 0.5ZM7.5 14.5625C8.10059 14.5625 8.6792 14.4844 9.23584 14.3281C9.79248 14.1719 10.3149 13.9521 10.8032 13.6689C11.2915 13.3857 11.7358 13.0415 12.1362 12.6362C12.5366 12.231 12.8784 11.7891 13.1616 11.3105C13.4448 10.832 13.667 10.3096 13.8281 9.74316C13.9893 9.17676 14.0674 8.5957 14.0625 8C14.0625 7.39941 13.9844 6.8208 13.8281 6.26416C13.6719 5.70752 13.4521 5.18506 13.1689 4.69678C12.8857 4.2085 12.5415 3.76416 12.1362 3.36377C11.731 2.96338 11.2891 2.62158 10.8105 2.33838C10.332 2.05518 9.80957 1.83301 9.24316 1.67188C8.67676 1.51074 8.0957 1.43262 7.5 1.4375C6.89941 1.4375 6.3208 1.51562 5.76416 1.67188C5.20752 1.82812 4.68506 2.04785 4.19678 2.33105C3.7085 2.61426 3.26416 2.9585 2.86377 3.36377C2.46338 3.76904 2.12158 4.21094 1.83838 4.68945C1.55518 5.16797 1.33301 5.69043 1.17188 6.25684C1.01074 6.82324 0.932617 7.4043 0.9375 8C0.9375 8.60059 1.01562 9.1792 1.17188 9.73584C1.32812 10.2925 1.54785 10.8149 1.83105 11.3032C2.11426 11.7915 2.4585 12.2358 2.86377 12.6362C3.26904 13.0366 3.71094 13.3784 4.18945 13.6616C4.66797 13.9448 5.19043 14.167 5.75684 14.3281C6.32324 14.4893 6.9043 14.5674 7.5 14.5625Z" fill="#484C52"/>
</g>
<defs>
<clipPath id="clip0_378_2081">
<rect width="15" height="15" fill="white" transform="translate(0 0.5)"/>
</clipPath>
</defs>
</svg>
