<svg width="15" height="16" viewBox="0 0 15 16" fill="none" xmlns="http://www.w3.org/2000/svg">
<path d="M1.25 2.375V1.90625C1.12568 1.90625 1.00645 1.95564 0.918544 2.04354C0.830636 2.13145 0.78125 2.25068 0.78125 2.375H1.25ZM8.125 2.375H8.59375C8.59375 2.25068 8.54436 2.13145 8.45646 2.04354C8.36855 1.95564 8.24932 1.90625 8.125 1.90625V2.375ZM8.125 6.125V5.65625C8.00068 5.65625 7.88145 5.70564 7.79354 5.79354C7.70564 5.88145 7.65625 6.00068 7.65625 6.125H8.125ZM1.25 2.84375H8.125V1.90625H1.25V2.84375ZM7.65625 2.375V12.375H8.59375V2.375H7.65625ZM1.71875 11.125V2.375H0.78125V11.125H1.71875ZM8.125 6.59375H11.25V5.65625H8.125V6.59375ZM13.2812 8.625V11.125H14.2188V8.625H13.2812ZM8.59375 12.375V6.125H7.65625V12.375H8.59375ZM11.8025 12.9275C11.73 13.0001 11.6438 13.0576 11.549 13.0969C11.4542 13.1362 11.3526 13.1564 11.25 13.1564C11.1474 13.1564 11.0458 13.1362 10.951 13.0969C10.8562 13.0576 10.77 13.0001 10.6975 12.9275L10.035 13.59C10.3573 13.9123 10.7945 14.0934 11.2503 14.0934C11.7061 14.0934 12.1433 13.9123 12.4656 13.59L11.8025 12.9275ZM10.6975 11.8225C10.77 11.7499 10.8562 11.6924 10.951 11.6531C11.0458 11.6138 11.1474 11.5936 11.25 11.5936C11.3526 11.5936 11.4542 11.6138 11.549 11.6531C11.6438 11.6924 11.73 11.7499 11.8025 11.8225L12.465 11.16C12.1427 10.8377 11.7055 10.6566 11.2497 10.6566C10.7939 10.6566 10.3567 10.8377 10.0344 11.16L10.6975 11.8225ZM4.3025 12.9275C4.22995 13.0001 4.14382 13.0576 4.04902 13.0969C3.95422 13.1362 3.85261 13.1564 3.75 13.1564C3.64739 13.1564 3.54578 13.1362 3.45098 13.0969C3.35618 13.0576 3.27005 13.0001 3.1975 12.9275L2.535 13.59C2.85733 13.9123 3.29449 14.0934 3.75031 14.0934C4.20614 14.0934 4.6433 13.9123 4.96563 13.59L4.3025 12.9275ZM3.1975 11.8225C3.27005 11.7499 3.35618 11.6924 3.45098 11.6531C3.54578 11.6138 3.64739 11.5936 3.75 11.5936C3.85261 11.5936 3.95422 11.6138 4.04902 11.6531C4.14382 11.6924 4.22995 11.7499 4.3025 11.8225L4.965 11.16C4.64267 10.8377 4.20551 10.6566 3.74969 10.6566C3.29386 10.6566 2.8567 10.8377 2.53437 11.16L3.1975 11.8225ZM11.8025 11.8225C11.955 11.975 12.0312 12.1744 12.0312 12.375H12.9688C12.9688 11.9356 12.8006 11.495 12.4656 11.1594L11.8025 11.8225ZM12.0312 12.375C12.0312 12.5756 11.955 12.775 11.8025 12.9275L12.4656 13.59C12.6255 13.4307 12.7517 13.2413 12.8382 13.0328C12.9246 12.8243 12.969 12.6007 12.9688 12.375H12.0312ZM10 11.9062H8.125V12.8437H10V11.9062ZM10.6975 12.9275C10.6247 12.8551 10.567 12.769 10.5277 12.6742C10.4884 12.5794 10.4684 12.4777 10.4688 12.375H9.53125C9.53125 12.8144 9.69938 13.255 10.0344 13.5906L10.6975 12.9275ZM10.4688 12.375C10.4688 12.1744 10.545 11.975 10.6975 11.8225L10.0344 11.16C9.87448 11.3193 9.74828 11.5087 9.66183 11.7172C9.57537 11.9257 9.531 12.1493 9.53125 12.375H10.4688ZM3.1975 12.9275C3.12468 12.8551 3.06696 12.769 3.02769 12.6742C2.98842 12.5794 2.96839 12.4777 2.96875 12.375H2.03125C2.03125 12.8144 2.19937 13.255 2.53437 13.5906L3.1975 12.9275ZM2.96875 12.375C2.96875 12.1744 3.045 11.975 3.1975 11.8225L2.535 11.16C2.3751 11.3193 2.24828 11.5087 2.16183 11.7172C2.07537 11.9257 2.031 12.1493 2.03125 12.375H2.96875ZM8.125 11.9062H5V12.8437H8.125V11.9062ZM4.3025 11.8225C4.455 11.975 4.53125 12.1744 4.53125 12.375H5.46875C5.46875 11.9356 5.30063 11.495 4.96563 11.1594L4.3025 11.8225ZM4.53125 12.375C4.53125 12.5756 4.455 12.775 4.3025 12.9275L4.965 13.59C5.1249 13.4307 5.25172 13.2413 5.33817 13.0328C5.42463 12.8243 5.469 12.6007 5.46875 12.375H4.53125ZM13.2812 11.125C13.2812 11.5562 12.9312 11.9062 12.5 11.9062V12.8437C12.9558 12.8437 13.393 12.6627 13.7153 12.3403C14.0377 12.018 14.2188 11.5808 14.2188 11.125H13.2812ZM11.25 6.59375C11.7887 6.59375 12.3054 6.80776 12.6863 7.18869C13.0672 7.56962 13.2812 8.08628 13.2812 8.625H14.2188C14.2188 7.83764 13.906 7.08252 13.3492 6.52578C12.7925 5.96903 12.0374 5.65625 11.25 5.65625V6.59375ZM0.78125 11.125C0.78125 11.5808 0.962332 12.018 1.28466 12.3403C1.60699 12.6627 2.04416 12.8437 2.5 12.8437V11.9062C2.06875 11.9062 1.71875 11.5562 1.71875 11.125H0.78125Z" fill="#515151"/>
</svg>
