<svg width="21" height="21" viewBox="0 0 21 21" fill="none" xmlns="http://www.w3.org/2000/svg">
<path d="M3.83317 17.1666C3.37484 17.1666 2.98262 17.0035 2.6565 16.6774C2.33039 16.3513 2.16706 15.9588 2.1665 15.4999V5.49992C2.1665 5.04159 2.32984 4.64936 2.6565 4.32325C2.98317 3.99714 3.37539 3.83381 3.83317 3.83325H17.1665C17.6248 3.83325 18.0173 3.99659 18.344 4.32325C18.6707 4.64992 18.8337 5.04214 18.8332 5.49992V15.4999C18.8332 15.9583 18.6701 16.3508 18.344 16.6774C18.0179 17.0041 17.6254 17.1671 17.1665 17.1666H3.83317ZM10.4998 11.3333L3.83317 7.16659V15.4999H17.1665V7.16659L10.4998 11.3333ZM10.4998 9.66658L17.1665 5.49992H3.83317L10.4998 9.66658ZM3.83317 7.16659V5.49992V15.4999V7.16659Z" fill="white"/>
</svg>
