<svg width="24" height="24" viewBox="0 0 24 24" fill="none" xmlns="http://www.w3.org/2000/svg">
<path fill-rule="evenodd" clip-rule="evenodd" d="M12 22C6.477 22 2 17.523 2 12C2 6.477 6.477 2 12 2C17.523 2 22 6.477 22 12C22 17.523 17.523 22 12 22ZM12 20.8C14.3339 20.8 16.5722 19.8729 18.2225 18.2225C19.8729 16.5722 20.8 14.3339 20.8 12C20.8 9.66609 19.8729 7.42778 18.2225 5.77746C16.5722 4.12714 14.3339 3.2 12 3.2C9.66609 3.2 7.42778 4.12714 5.77746 5.77746C4.12714 7.42778 3.2 9.66609 3.2 12C3.2 14.3339 4.12714 16.5722 5.77746 18.2225C7.42778 19.8729 9.66609 20.8 12 20.8ZM9 9.707C9.077 8.2 10.081 7 12.042 7C13.8 7 15 8.088 15 9.526C15 10.621 14.435 11.396 13.542 11.933C12.656 12.456 12.405 12.847 12.405 13.579V14.033H11.184V13.391C11.177 12.47 11.624 11.841 12.579 11.27C13.389 10.774 13.702 10.335 13.702 9.588C13.702 8.723 13.032 8.088 11.993 8.088C10.94 8.088 10.27 8.709 10.193 9.707H9ZM11.798 17.214C11.6932 17.2153 11.5892 17.1957 11.492 17.1562C11.3949 17.1168 11.3067 17.0583 11.2325 16.9842C11.1583 16.9101 11.0997 16.822 11.0601 16.7249C11.0206 16.6278 11.0008 16.5238 11.002 16.419C11.002 15.965 11.352 15.623 11.798 15.623C12.251 15.623 12.593 15.965 12.593 16.419C12.595 16.524 12.5759 16.6283 12.5366 16.7256C12.4974 16.823 12.4389 16.9115 12.3647 16.9857C12.2905 17.0599 12.202 17.1184 12.1046 17.1576C12.0073 17.1969 11.903 17.216 11.798 17.214Z" fill="black"/>
</svg>
