<svg width="21" height="22" viewBox="0 0 21 22" fill="none" xmlns="http://www.w3.org/2000/svg">
<path d="M19.25 3.125V2.46875C19.424 2.46875 19.591 2.53789 19.714 2.66096C19.8371 2.78403 19.9062 2.95095 19.9062 3.125H19.25ZM9.625 3.125H8.96875C8.96875 2.95095 9.03789 2.78403 9.16096 2.66096C9.28403 2.53789 9.45095 2.46875 9.625 2.46875V3.125ZM9.625 8.375V7.71875C9.79905 7.71875 9.96597 7.78789 10.089 7.91096C10.2121 8.03403 10.2812 8.20095 10.2812 8.375H9.625ZM19.25 3.78125H9.625V2.46875H19.25V3.78125ZM10.2812 3.125V17.125H8.96875V3.125H10.2812ZM18.5938 15.375V3.125H19.9062V15.375H18.5938ZM9.625 9.03125H5.25V7.71875H9.625V9.03125ZM2.40625 11.875V15.375H1.09375V11.875H2.40625ZM8.96875 17.125V8.375H10.2812V17.125H8.96875ZM4.4765 17.8985C4.57807 18.0001 4.69866 18.0807 4.83137 18.1357C4.96409 18.1907 5.10634 18.219 5.25 18.219C5.39366 18.219 5.53591 18.1907 5.66863 18.1357C5.80134 18.0807 5.92193 18.0001 6.0235 17.8985L6.951 18.826C6.49974 19.2772 5.88772 19.5307 5.24956 19.5307C4.6114 19.5307 3.99938 19.2772 3.54813 18.826L4.4765 17.8985ZM6.0235 16.3515C5.92193 16.2499 5.80134 16.1693 5.66863 16.1143C5.53591 16.0593 5.39366 16.031 5.25 16.031C5.10634 16.031 4.96409 16.0593 4.83137 16.1143C4.69866 16.1693 4.57807 16.2499 4.4765 16.3515L3.549 15.424C4.00026 14.9728 4.61228 14.7193 5.25044 14.7193C5.8886 14.7193 6.50062 14.9728 6.95187 15.424L6.0235 16.3515ZM14.9765 17.8985C15.0781 18.0001 15.1987 18.0807 15.3314 18.1357C15.4641 18.1907 15.6063 18.219 15.75 18.219C15.8937 18.219 16.0359 18.1907 16.1686 18.1357C16.3013 18.0807 16.4219 18.0001 16.5235 17.8985L17.451 18.826C16.9997 19.2772 16.3877 19.5307 15.7496 19.5307C15.1114 19.5307 14.4994 19.2772 14.0481 18.826L14.9765 17.8985ZM16.5235 16.3515C16.4219 16.2499 16.3013 16.1693 16.1686 16.1143C16.0359 16.0593 15.8937 16.031 15.75 16.031C15.6063 16.031 15.4641 16.0593 15.3314 16.1143C15.1987 16.1693 15.0781 16.2499 14.9765 16.3515L14.049 15.424C14.5003 14.9728 15.1123 14.7193 15.7504 14.7193C16.3886 14.7193 17.0006 14.9728 17.4519 15.424L16.5235 16.3515ZM4.4765 16.3515C4.263 16.565 4.15625 16.8441 4.15625 17.125H2.84375C2.84375 16.5099 3.07912 15.893 3.54813 15.4231L4.4765 16.3515ZM4.15625 17.125C4.15625 17.4059 4.263 17.685 4.4765 17.8985L3.54813 18.826C3.32427 18.6029 3.14759 18.3378 3.02656 18.0459C2.90553 17.754 2.8434 17.441 2.84375 17.125H4.15625ZM7 16.4687H9.625V17.7812H7V16.4687ZM6.0235 17.8985C6.12545 17.7972 6.20625 17.6767 6.26123 17.5439C6.31621 17.4111 6.34426 17.2687 6.34375 17.125H7.65625C7.65625 17.7401 7.42087 18.357 6.95187 18.8269L6.0235 17.8985ZM6.34375 17.125C6.34375 16.8441 6.237 16.565 6.0235 16.3515L6.95187 15.424C7.17573 15.6471 7.35241 15.9122 7.47344 16.2041C7.59448 16.496 7.6566 16.809 7.65625 17.125H6.34375ZM16.5235 17.8985C16.6254 17.7972 16.7063 17.6767 16.7612 17.5439C16.8162 17.4111 16.8443 17.2687 16.8438 17.125H18.1562C18.1562 17.7401 17.9209 18.357 17.4519 18.8269L16.5235 17.8985ZM16.8438 17.125C16.8438 16.8441 16.737 16.565 16.5235 16.3515L17.451 15.424C17.6749 15.6471 17.8524 15.9122 17.9734 16.2041C18.0945 16.496 18.1566 16.809 18.1562 17.125H16.8438ZM9.625 16.4687H14V17.7812H9.625V16.4687ZM14.9765 16.3515C14.763 16.565 14.6562 16.8441 14.6562 17.125H13.3438C13.3438 16.5099 13.5791 15.893 14.0481 15.4231L14.9765 16.3515ZM14.6562 17.125C14.6562 17.4059 14.763 17.685 14.9765 17.8985L14.049 18.826C13.8251 18.6029 13.6476 18.3378 13.5266 18.0459C13.4055 17.754 13.3434 17.441 13.3438 17.125H14.6562ZM2.40625 15.375C2.40625 15.9787 2.89625 16.4687 3.5 16.4687V17.7812C2.86182 17.7812 2.24978 17.5277 1.79852 17.0765C1.34727 16.6252 1.09375 16.0132 1.09375 15.375H2.40625ZM5.25 9.03125C4.49579 9.03125 3.77247 9.33086 3.23916 9.86416C2.70586 10.3975 2.40625 11.1208 2.40625 11.875H1.09375C1.09375 10.7727 1.53164 9.71554 2.31109 8.93609C3.09054 8.15664 4.14769 7.71875 5.25 7.71875V9.03125ZM19.9062 15.375C19.9062 16.0132 19.6527 16.6252 19.2015 17.0765C18.7502 17.5277 18.1382 17.7812 17.5 17.7812V16.4687C18.1037 16.4687 18.5938 15.9787 18.5938 15.375H19.9062Z" fill="#008000"/>
</svg>
