<svg width="25" height="25" viewBox="0 0 25 25" fill="none" xmlns="http://www.w3.org/2000/svg">
<path d="M17.7921 1.91699H8.11471C5.98649 1.91699 4.23975 3.66374 4.23975 5.79195V19.9366C4.23975 21.7435 5.53475 22.5065 7.12087 21.6331L12.0198 18.9126C12.5418 18.6215 13.3851 18.6215 13.897 18.9126L18.7959 21.6331C20.3821 22.5165 21.6771 21.7536 21.6771 19.9366V5.79195C21.667 3.66374 19.9303 1.91699 17.7921 1.91699ZM16.5874 9.06459L12.5719 13.0801C12.4213 13.2307 12.2306 13.3009 12.0399 13.3009C11.8491 13.3009 11.6584 13.2307 11.5078 13.0801L10.002 11.5743C9.71087 11.2832 9.71087 10.8013 10.002 10.5102C10.2931 10.219 10.775 10.219 11.0661 10.5102L12.0399 11.4839L15.5233 8.00048C15.8144 7.70936 16.2963 7.70936 16.5874 8.00048C16.8785 8.2916 16.8785 8.77347 16.5874 9.06459Z" fill="#B92123"/>
</svg>
