<svg width="26" height="26" viewBox="0 0 26 26" fill="none" xmlns="http://www.w3.org/2000/svg">
<path d="M18.6875 18.6875H7.08906L4.25547 3.10781C4.22232 2.92124 4.12499 2.75212 3.98033 2.62971C3.83567 2.50731 3.65277 2.43931 3.46328 2.4375H1.625" stroke="#484C52" stroke-width="1.5" stroke-linecap="round" stroke-linejoin="round"/>
<path d="M8.125 22.75C9.24683 22.75 10.1562 21.8406 10.1562 20.7188C10.1562 19.5969 9.24683 18.6875 8.125 18.6875C7.00317 18.6875 6.09375 19.5969 6.09375 20.7188C6.09375 21.8406 7.00317 22.75 8.125 22.75Z" stroke="#484C52" stroke-width="1.5" stroke-linecap="round" stroke-linejoin="round"/>
<path d="M18.6875 22.75C19.8093 22.75 20.7188 21.8406 20.7188 20.7188C20.7188 19.5969 19.8093 18.6875 18.6875 18.6875C17.5657 18.6875 16.6562 19.5969 16.6562 20.7188C16.6562 21.8406 17.5657 22.75 18.6875 22.75Z" stroke="#484C52" stroke-width="1.5" stroke-linecap="round" stroke-linejoin="round"/>
<path d="M6.34766 14.625H19.1039C19.4837 14.6262 19.8518 14.4934 20.1434 14.2501C20.435 14.0067 20.6316 13.6684 20.6984 13.2945L21.9375 6.5H4.875" stroke="#484C52" stroke-width="1.5" stroke-linecap="round" stroke-linejoin="round"/>
</svg>
