<svg width="29" height="23" viewBox="0 0 29 23" fill="none" xmlns="http://www.w3.org/2000/svg">
<g clip-path="url(#clip0_124_3878)">
<path d="M5.27218 22.8858V21.3635C5.27218 20.7799 4.92395 20.3994 4.32707 20.3994C4.02869 20.3994 3.70538 20.5009 3.48154 20.8307C3.30754 20.5516 3.05889 20.3994 2.68585 20.3994C2.43709 20.3994 2.18855 20.4754 1.98951 20.7546V20.4501H1.46729V22.8858H1.98951V21.5411C1.98951 21.1098 2.21336 20.9068 2.56158 20.9068C2.90958 20.9068 3.08381 21.1352 3.08381 21.5411V22.8858H3.60604V21.5411C3.60604 21.1098 3.85457 20.9068 4.17788 20.9068C4.52611 20.9068 4.70011 21.1352 4.70011 21.5411V22.8858H5.27218ZM13.006 20.4501H12.1606V19.7144H11.6384V20.4501H11.1659V20.9321H11.6382V22.0486C11.6382 22.6068 11.8621 22.9365 12.459 22.9365C12.6828 22.9365 12.9313 22.8605 13.1056 22.759L12.9563 22.3023C12.8071 22.4037 12.6331 22.4292 12.5087 22.4292C12.26 22.4292 12.1606 22.2769 12.1606 22.0231V20.9321H13.006V20.4501ZM17.4326 20.3993C17.1342 20.3993 16.9353 20.5516 16.8109 20.7546V20.4501H16.2887V22.8858H16.8109V21.5157C16.8109 21.1098 16.9849 20.8815 17.3082 20.8815C17.4077 20.8815 17.532 20.9069 17.6315 20.9322L17.7807 20.4248C17.6812 20.3994 17.532 20.3994 17.4326 20.3994M10.7431 20.6532C10.4943 20.4755 10.1462 20.3995 9.77318 20.3995C9.17641 20.3995 8.77857 20.7039 8.77857 21.186C8.77857 21.592 9.07695 21.8203 9.59918 21.8965L9.84783 21.9219C10.1214 21.9725 10.2706 22.0487 10.2706 22.1756C10.2706 22.3531 10.0717 22.48 9.72345 22.48C9.37522 22.48 9.10176 22.3531 8.92765 22.2263L8.679 22.6322C8.95257 22.8352 9.32561 22.9367 9.69853 22.9367C10.3949 22.9367 10.7928 22.6069 10.7928 22.1502C10.7928 21.7188 10.4695 21.4904 9.9721 21.4144L9.72345 21.389C9.49961 21.3635 9.3256 21.3129 9.3256 21.1607C9.3256 20.9831 9.49961 20.8816 9.77318 20.8816C10.0717 20.8816 10.3701 21.0084 10.5192 21.0845L10.7431 20.6532ZM24.6195 20.3995C24.321 20.3995 24.1221 20.5517 23.9977 20.7547V20.4502H23.4755V22.8859H23.9977V21.5159C23.9977 21.11 24.1718 20.8816 24.495 20.8816C24.5946 20.8816 24.7189 20.907 24.8184 20.9323L24.9676 20.4249C24.8681 20.3995 24.7189 20.3995 24.6195 20.3995ZM17.9548 21.6681C17.9548 22.4038 18.4521 22.9367 19.2231 22.9367C19.5712 22.9367 19.8199 22.8606 20.0685 22.6577L19.8199 22.2263C19.6209 22.3785 19.422 22.4546 19.1982 22.4546C18.7754 22.4546 18.477 22.1502 18.477 21.6681C18.477 21.2114 18.7754 20.9069 19.1982 20.8816C19.422 20.8816 19.6209 20.9576 19.8199 21.11L20.0685 20.6786C19.8199 20.4755 19.5712 20.3995 19.2231 20.3995C18.4521 20.3995 17.9548 20.9323 17.9548 21.6681ZM22.7792 21.6681V20.4502H22.257V20.7547C22.0829 20.5264 21.8342 20.3995 21.5109 20.3995C20.8395 20.3995 20.3173 20.9323 20.3173 21.6681C20.3173 22.4038 20.8395 22.9367 21.5109 22.9367C21.859 22.9367 22.1078 22.8099 22.257 22.5815V22.8859H22.7792V21.6681ZM20.8643 21.6681C20.8643 21.2367 21.1379 20.8816 21.5855 20.8816C22.0082 20.8816 22.3067 21.2114 22.3067 21.6681C22.3067 22.0994 22.0082 22.4546 21.5855 22.4546C21.1379 22.4292 20.8643 22.0994 20.8643 21.6681ZM14.6225 20.3995C13.9262 20.3995 13.4288 20.9069 13.4288 21.6681C13.4288 22.4293 13.9261 22.9367 14.6473 22.9367C14.9954 22.9367 15.3437 22.8352 15.6172 22.6069L15.3685 22.2263C15.1696 22.3785 14.9209 22.48 14.6723 22.48C14.349 22.48 14.0256 22.3278 13.951 21.8963H15.7167V21.6935C15.7416 20.9069 15.2941 20.3995 14.6225 20.3995ZM14.6224 20.8561C14.9456 20.8561 15.1696 21.0592 15.2192 21.4398H13.9758C14.0255 21.11 14.2494 20.8561 14.6224 20.8561ZM27.5786 21.6681V19.4861H27.0564V20.7547C26.8823 20.5264 26.6336 20.3995 26.3103 20.3995C25.6389 20.3995 25.1167 20.9323 25.1167 21.6681C25.1167 22.4038 25.6389 22.9367 26.3103 22.9367C26.6585 22.9367 26.9072 22.8099 27.0564 22.5815V22.8859H27.5786V21.6681ZM25.6638 21.6681C25.6638 21.2367 25.9373 20.8816 26.385 20.8816C26.8077 20.8816 27.1061 21.2114 27.1061 21.6681C27.1061 22.0994 26.8077 22.4546 26.385 22.4546C25.9373 22.4292 25.6638 22.0994 25.6638 21.6681ZM8.20639 21.6681V20.4502H7.68416V20.7547C7.51005 20.5264 7.26139 20.3995 6.93809 20.3995C6.26667 20.3995 5.74445 20.9323 5.74445 21.6681C5.74445 22.4038 6.26667 22.9367 6.93809 22.9367C7.28632 22.9367 7.53497 22.8099 7.68416 22.5815V22.8859H8.20639V21.6681ZM6.26667 21.6681C6.26667 21.2367 6.54025 20.8816 6.98782 20.8816C7.41059 20.8816 7.70908 21.2114 7.70908 21.6681C7.70908 22.0994 7.41059 22.4546 6.98782 22.4546C6.54025 22.4292 6.26667 22.0994 6.26667 21.6681Z" fill="black"/>
<path d="M10.5688 1.95361H18.4022V16.3143H10.5688V1.95361Z" fill="#FF5F00"/>
<path d="M11.0663 9.134C11.0663 6.21624 12.4092 3.62822 14.4732 1.95361C12.9563 0.735769 11.0415 0 8.95262 0C4.0037 0 0 4.08487 0 9.134C0 14.1831 4.0037 18.268 8.9525 18.268C11.0414 18.268 12.9562 17.5322 14.4732 16.3143C12.4092 14.6651 11.0663 12.0518 11.0663 9.134Z" fill="#EB001B"/>
<path d="M28.9712 9.134C28.9712 14.183 24.9675 18.268 20.0187 18.268C17.9298 18.268 16.015 17.5322 14.498 16.3143C16.587 14.6398 17.905 12.0518 17.905 9.134C17.905 6.21624 16.562 3.62822 14.498 1.95361C16.0149 0.735769 17.9298 0 20.0187 0C24.9675 0 28.9712 4.1103 28.9712 9.134Z" fill="#F79E1B"/>
</g>
<defs>
<clipPath id="clip0_124_3878">
<rect width="29" height="23" fill="white"/>
</clipPath>
</defs>
</svg>
