<svg width="34" height="26" viewBox="0 0 34 26" fill="none" xmlns="http://www.w3.org/2000/svg">
<path d="M9.91663 5.91659L19.6467 1.65968C20.6688 1.21252 21.8312 1.21252 22.8532 1.65969L32.5833 5.91659M1.41663 14.6319L1.48321 14.6631L7.08329 17.2499M2.41679 10.1354L7.08329 12.2916L2.41679 10.1354ZM3.35038 5.60917L7.08329 7.33325L3.35038 5.60917ZM21.25 10.8749V25.0416V10.8749Z" fill="#B92123"/>
<path d="M9.91663 5.91659L19.6467 1.65968C20.6688 1.21252 21.8312 1.21252 22.8532 1.65969L32.5833 5.91659M1.41663 14.6319L1.48321 14.6631L7.08329 17.2499M2.41679 10.1354L7.08329 12.2916M3.35038 5.60917L7.08329 7.33325M21.25 10.8749V25.0416" stroke="#B92123" stroke-miterlimit="10" stroke-linecap="round" stroke-linejoin="round"/>
<path d="M9.91663 5.9165V20.0832L21.25 25.0415L32.5833 20.0832V5.9165" fill="#B92123"/>
<path d="M9.91663 5.9165V20.0832L21.25 25.0415L32.5833 20.0832V5.9165" stroke="white" stroke-miterlimit="10" stroke-linecap="round" stroke-linejoin="round"/>
<path d="M9.91663 5.9165L21.25 10.8748L32.5833 5.9165" fill="#B92123"/>
<path d="M9.91663 5.9165L21.25 10.8748L32.5833 5.9165" stroke="white" stroke-miterlimit="10" stroke-linecap="round" stroke-linejoin="round"/>
<path d="M15.5833 3.4375L26.9166 8.43975V13" fill="#B92123"/>
<path d="M15.5833 3.4375L26.9166 8.43975V13" stroke="white" stroke-miterlimit="10" stroke-linecap="round" stroke-linejoin="round"/>
</svg>
