<svg width="25" height="25" viewBox="0 0 25 25" fill="none" xmlns="http://www.w3.org/2000/svg">
<path d="M16.8853 1.91724H7.20797C5.07975 1.91724 3.33301 3.66398 3.33301 5.7922V19.9368C3.33301 21.7438 4.62801 22.5067 6.21413 21.6334L11.113 18.9129C11.6351 18.6217 12.4783 18.6217 12.9903 18.9129L17.8892 21.6334C19.4753 22.5168 20.7703 21.7538 20.7703 19.9368V5.7922C20.7603 3.66398 19.0236 1.91724 16.8853 1.91724ZM15.6807 9.06483L11.6652 13.0803C11.5146 13.2309 11.3239 13.3012 11.1331 13.3012C10.9424 13.3012 10.7517 13.2309 10.6011 13.0803L9.09526 11.5745C8.80413 11.2834 8.80413 10.8015 9.09526 10.5104C9.38638 10.2193 9.86824 10.2193 10.1594 10.5104L11.1331 11.4842L14.6166 8.00072C14.9077 7.7096 15.3896 7.7096 15.6807 8.00072C15.9718 8.29185 15.9718 8.77371 15.6807 9.06483Z" fill="#B92123"/>
</svg>
