<svg width="20" height="20" viewBox="0 0 20 20" fill="none" xmlns="http://www.w3.org/2000/svg">
<g clip-path="url(#clip0_172_3150)">
<path d="M7.62753 4.50675C8.68337 2.61341 9.21087 1.66675 10 1.66675C10.7892 1.66675 11.3167 2.61341 12.3725 4.50675L12.6459 4.99675C12.9459 5.53508 13.0959 5.80425 13.3292 5.98175C13.5625 6.15925 13.8542 6.22508 14.4375 6.35675L14.9675 6.47675C17.0175 6.94091 18.0417 7.17258 18.2859 7.95675C18.5292 8.74008 17.8309 9.55758 16.4334 11.1917L16.0717 11.6142C15.675 12.0784 15.4759 12.3109 15.3867 12.5976C15.2975 12.8851 15.3275 13.1951 15.3875 13.8142L15.4425 14.3784C15.6534 16.5592 15.7592 17.6492 15.1209 18.1334C14.4825 18.6176 13.5225 18.1759 11.6042 17.2926L11.1067 17.0642C10.5617 16.8126 10.2892 16.6876 10 16.6876C9.71087 16.6876 9.43837 16.8126 8.89337 17.0642L8.3967 17.2926C6.47753 18.1759 5.51753 18.6176 4.88003 18.1342C4.24087 17.6492 4.3467 16.5592 4.55753 14.3784L4.61253 13.8151C4.67253 13.1951 4.70253 12.8851 4.61253 12.5984C4.5242 12.3109 4.32503 12.0784 3.92837 11.6151L3.5667 11.1917C2.1692 9.55842 1.47087 8.74092 1.7142 7.95675C1.95753 7.17258 2.98337 6.94008 5.03337 6.47675L5.56337 6.35675C6.14587 6.22508 6.4367 6.15925 6.67087 5.98175C6.90503 5.80425 7.0542 5.53508 7.3542 4.99675L7.62753 4.50675Z" stroke="black" stroke-width="1.5"/>
</g>
<defs>
<clipPath id="clip0_172_3150">
<rect width="20" height="20" fill="white"/>
</clipPath>
</defs>
</svg>
